<?xml version="1.0" encoding="UTF-8"?>
<svg version="1.1" xmlns="http://www.w3.org/2000/svg" width="61" height="66">
<path d="M0 0 C20.13 0 40.26 0 61 0 C61 21.78 61 43.56 61 66 C40.87 66 20.74 66 0 66 C0 44.22 0 22.44 0 0 Z " fill="#272727" transform="translate(0,0)"/>
<path d="M0 0 C0.33 0 0.66 0 1 0 C1 7.92 1 15.84 1 24 C-9.23 24 -19.46 24 -30 24 C-27.85571297 22.92785649 -25.70987827 21.85864676 -23.5546875 20.80859375 C-13.68222376 15.75723111 -6.10535261 9.25650234 0 0 Z " fill="#F3F3F3" transform="translate(45,27)"/>
<path d="M0 0 C10.23 0 20.46 0 31 0 C28.95685607 1.02157197 26.90878122 2.03902408 24.80859375 2.9375 C14.74135008 7.44868662 6.99007565 14.81521733 1 24 C0.67 24 0.34 24 0 24 C0 16.08 0 8.16 0 0 Z " fill="#4A6EE3" transform="translate(18,15)"/>
</svg>
